<svg xmlns="http://www.w3.org/2000/svg" width="1024" height="1024" viewBox="0 0 1024 1024">
  <defs>
    <linearGradient id="sky" x1="0%" y1="0%" x2="100%" y2="100%">
      <stop offset="0%" stop-color="#38BDF8"/>
      <stop offset="55%" stop-color="#7DD3FC"/>
      <stop offset="100%" stop-color="#FBBF24"/>
    </linearGradient>
    <linearGradient id="bubble" x1="0%" y1="0%" x2="100%" y2="100%">
      <stop offset="0%" stop-color="#FFFFFF"/>
      <stop offset="100%" stop-color="#FFF7ED"/>
    </linearGradient>
    <linearGradient id="micRing" x1="0%" y1="0%" x2="100%" y2="100%">
      <stop offset="0%" stop-color="#FF6B9D"/>
      <stop offset="100%" stop-color="#EC4899"/>
    </linearGradient>
  </defs>

  <rect width="1024" height="1024" rx="224" fill="url(#sky)"/>

  <circle cx="180" cy="190" r="18" fill="#FFFFFF" opacity="0.55"/>
  <circle cx="860" cy="170" r="14" fill="#FFFFFF" opacity="0.45"/>
  <path d="M820 820l18 18-18 18-18-18z" fill="#FFFFFF" opacity="0.35"/>
  <path d="M210 760l14 14-14 14-14-14z" fill="#FFFFFF" opacity="0.35"/>

  <rect x="168" y="188" width="688" height="520" rx="120" fill="url(#bubble)"/>
  <path d="M280 708c0 0 36 96 132 96 36 0 64-12 84-28 18 36 56 60 100 60 72 0 132-60 132-132V248H280v460z" fill="url(#bubble)"/>
  <path d="M292 700c28 52 84 84 148 84 34 0 64-10 88-28 16 28 46 48 82 48 58 0 106-48 106-106V260H292v440z" fill="#FFFFFF" opacity="0.35"/>

  <circle cx="360" cy="410" r="72" fill="#4ADE80"/>
  <text x="360" y="438" font-family="Arial, Helvetica, sans-serif" font-size="72" font-weight="800" fill="#FFFFFF" text-anchor="middle">1</text>

  <circle cx="512" cy="410" r="72" fill="#FF6B9D"/>
  <text x="512" y="438" font-family="Arial, Helvetica, sans-serif" font-size="72" font-weight="800" fill="#FFFFFF" text-anchor="middle">2</text>

  <circle cx="664" cy="410" r="72" fill="#A78BFA"/>
  <text x="664" y="438" font-family="Arial, Helvetica, sans-serif" font-size="72" font-weight="800" fill="#FFFFFF" text-anchor="middle">3</text>

  <g fill="#22C55E">
    <rect x="332" y="548" width="72" height="18" rx="9"/>
    <rect x="350" y="530" width="18" height="72" rx="9"/>
  </g>
  <rect x="476" y="548" width="72" height="18" rx="9" fill="#3B82F6"/>
  <g fill="#F97316">
    <rect x="620" y="540" width="64" height="16" rx="8" transform="rotate(45 652 548)"/>
    <rect x="620" y="540" width="64" height="16" rx="8" transform="rotate(-45 652 548)"/>
  </g>

  <circle cx="760" cy="760" r="96" fill="url(#micRing)"/>
  <circle cx="760" cy="760" r="82" fill="#FFFFFF" opacity="0.18"/>
  <rect x="736" y="708" width="30" height="58" rx="15" fill="#FFFFFF"/>
  <path d="M766 766c0 22 18 38 38 38s38-16 38-38v-18h-22v18c0 10-8 18-16 18s-16-8-16-18z" fill="#FFFFFF"/>
  <rect x="748" y="804" width="36" height="10" rx="5" fill="#FFFFFF"/>
  <path d="M818 736c18 10 30 28 30 48" stroke="#FFFFFF" stroke-width="10" stroke-linecap="round" fill="none" opacity="0.95"/>
  <path d="M842 720c24 14 40 40 40 66" stroke="#FFFFFF" stroke-width="10" stroke-linecap="round" fill="none" opacity="0.75"/>
</svg>
